<?xml version="1.0" encoding="UTF-8" standalone="no"?>
<!-- Created with Inkscape (http://www.inkscape.org/) -->

<svg
   version="1.1"
   id="svg1"
   width="274.14001"
   height="481.40701"
   viewBox="0 0 274.14001 481.40701"
   sodipodi:docname="arrow-left.svg"
   inkscape:version="1.3.2 (091e20e, 2023-11-25, custom)"
   xmlns:inkscape="http://www.inkscape.org/namespaces/inkscape"
   xmlns:sodipodi="http://sodipodi.sourceforge.net/DTD/sodipodi-0.dtd"
   xmlns="http://www.w3.org/2000/svg"
   xmlns:svg="http://www.w3.org/2000/svg">
  <defs
     id="defs1" />
  <sodipodi:namedview
     id="namedview1"
     pagecolor="#ffffff"
     bordercolor="#000000"
     borderopacity="0.25"
     inkscape:showpageshadow="2"
     inkscape:pageopacity="0.0"
     inkscape:pagecheckerboard="0"
     inkscape:deskcolor="#d1d1d1"
     inkscape:zoom="0.85186767"
     inkscape:cx="240.6477"
     inkscape:cy="241.23465"
     inkscape:window-width="1920"
     inkscape:window-height="1017"
     inkscape:window-x="-8"
     inkscape:window-y="-8"
     inkscape:window-maximized="1"
     inkscape:current-layer="g1" />
  <g
     inkscape:groupmode="layer"
     inkscape:label="Image"
     id="g1">
    <path
       style="fill:#ffffff"
       d="m 249.11207,480.32814 c 16.85882,-4.54562 27.73998,-21.66815 24.43744,-38.45462 -0.634,-3.22256 -2.00164,-7.56374 -3.0392,-9.64706 -1.23046,-2.47064 -34.49749,-36.43511 -95.66461,-97.67021 L 81.067571,240.6739 174.8457,146.79154 c 61.16712,-61.235085 94.43415,-95.199555 95.66461,-97.670198 3.20565,-6.436622 4.36824,-14.601631 3.04547,-21.388615 C 269.09649,4.8525855 244.94239,-6.7697145 224.51548,4.1358555 218.6899,7.2460265 6.2627114,219.76266 3.5767214,225.16764 c -1.0353,2.08332 -2.40109,6.42449 -3.03508996,9.64705 -1.32949,6.7577 -0.17079,14.91434 3.03510996,21.36547 2.34952,4.72786 213.9852486,216.93413 219.8085986,220.40118 7.81225,4.65117 17.26614,6.02802 25.72673,3.7468 z"
       id="path1" />
  </g>
</svg>
