<?xml version="1.0" encoding="UTF-8" standalone="no"?>
<!-- Created with Inkscape (http://www.inkscape.org/) -->

<svg
   version="1.1"
   id="svg1"
   width="274.14001"
   height="481.40701"
   viewBox="0 0 274.14001 481.40701"
   sodipodi:docname="arrow-right.svg"
   inkscape:version="1.3.2 (091e20e, 2023-11-25, custom)"
   xmlns:inkscape="http://www.inkscape.org/namespaces/inkscape"
   xmlns:sodipodi="http://sodipodi.sourceforge.net/DTD/sodipodi-0.dtd"
   xmlns="http://www.w3.org/2000/svg"
   xmlns:svg="http://www.w3.org/2000/svg">
  <defs
     id="defs1" />
  <sodipodi:namedview
     id="namedview1"
     pagecolor="#ffffff"
     bordercolor="#000000"
     borderopacity="0.25"
     inkscape:showpageshadow="2"
     inkscape:pageopacity="0.0"
     inkscape:pagecheckerboard="0"
     inkscape:deskcolor="#d1d1d1"
     inkscape:zoom="0.85186767"
     inkscape:cx="240.6477"
     inkscape:cy="241.23465"
     inkscape:window-width="1920"
     inkscape:window-height="1017"
     inkscape:window-x="-8"
     inkscape:window-y="-8"
     inkscape:window-maximized="1"
     inkscape:current-layer="g1" />
  <g
     inkscape:groupmode="layer"
     inkscape:label="Image"
     id="g1">
    <path
       style="fill:#ffffff"
       d="M 25.027943,480.32814 C 8.1691232,475.78252 -2.7120368,458.65999 0.59050321,441.87352 1.2245032,438.65096 2.5921432,434.30978 3.6297032,432.22646 4.8601632,429.75582 38.127193,395.79135 99.294313,334.55625 L 193.07244,240.6739 99.294313,146.79154 C 38.127193,85.556455 4.8601632,51.591985 3.6297032,49.121342 0.42405321,42.68472 -0.73853679,34.519711 0.58423321,27.732727 5.0435232,4.8525855 29.197623,-6.7697145 49.624533,4.1358555 55.450113,7.2460265 267.8773,219.76266 270.56329,225.16764 c 1.0353,2.08332 2.40109,6.42449 3.03509,9.64705 1.32949,6.7577 0.17079,14.91434 -3.03511,21.36547 -2.34952,4.72786 -213.985247,216.93413 -219.808597,220.40118 -7.81225,4.65117 -17.26614,6.02802 -25.72673,3.7468 z"
       id="path1" />
  </g>
</svg>
