<?xml version="1.0" encoding="UTF-8" standalone="no"?>
<!-- Created with Inkscape (http://www.inkscape.org/) -->

<svg
   version="1.1"
   id="svg1"
   width="211.064"
   height="148.955"
   viewBox="0 0 211.064 148.955"
   sodipodi:docname="closed-eye.svg"
   inkscape:version="1.3.2 (091e20e, 2023-11-25, custom)"
   xmlns:inkscape="http://www.inkscape.org/namespaces/inkscape"
   xmlns:sodipodi="http://sodipodi.sourceforge.net/DTD/sodipodi-0.dtd"
   xmlns="http://www.w3.org/2000/svg"
   xmlns:svg="http://www.w3.org/2000/svg">
  <defs
     id="defs1" />
  <sodipodi:namedview
     id="namedview1"
     pagecolor="#ffffff"
     bordercolor="#000000"
     borderopacity="0.25"
     inkscape:showpageshadow="2"
     inkscape:pageopacity="0.0"
     inkscape:pagecheckerboard="0"
     inkscape:deskcolor="#d1d1d1"
     inkscape:zoom="2.8882322"
     inkscape:cx="120.48893"
     inkscape:cy="100.58056"
     inkscape:window-width="1920"
     inkscape:window-height="1017"
     inkscape:window-x="-8"
     inkscape:window-y="-8"
     inkscape:window-maximized="1"
     inkscape:current-layer="g1" />
  <g
     inkscape:groupmode="layer"
     inkscape:label="Image"
     id="g1">
    <path
       style="fill:#ffffff;stroke-width:0.999997"
       d="m 156.44529,135.90147 -13.05353,-13.05353 -7.92841,2.01001 c -23.84112,6.04416 -45.292654,5.12918 -69.928205,-2.98267 C 46.934272,115.75049 23.367812,102.35187 6.7678117,88.463302 L 3.0168066e-4,82.801202 4.2678217,77.699752 C 15.618412,64.131072 35.269792,46.897552 49.186822,38.307472 L 55.150542,34.626456 43.082992,22.529861 31.015442,10.433265 36.297682,5.2166324 41.579942,-5.8447264e-7 55.406752,13.853329 69.233568,27.706658 77.884322,24.930366 C 110.7321,14.388512 140.81365,21.506329 175.7294,48.082202 c 9.47969,7.2154 26.31796,23.2698 32.06979,30.57684 l 3.2645,4.14717 -6.76448,5.66968 c -9.26357,7.76429 -25.67126,18.540858 -36.10093,23.711098 -4.76489,2.36207 -8.86588,4.42211 -9.1133,4.57786 -0.24742,0.15576 4.3691,5.11713 10.25893,11.02529 l 10.70877,10.74208 -5.27693,5.21138 -5.27694,5.2114 z M 118.10347,118.3962 c 2.98731,-0.87201 7.39439,-2.72052 9.79349,-4.10779 l 4.36201,-2.52233 -5.70764,-5.76783 c -5.55674,-5.61534 -5.78078,-5.73134 -8.47408,-4.38775 -7.07666,3.53031 -19.040063,3.49215 -25.953221,-0.0828 -4.703294,-2.432168 -9.914033,-7.386778 -12.550006,-11.933118 -4.56547,-7.8742 -5.070377,-19.83197 -1.167711,-27.65504 1.34359,-2.69329 1.227589,-2.91733 -4.387748,-8.47407 l -5.767824,-5.70763 -2.52233,4.36199 c -11.853208,20.49841 -4.935292,47.87259 15.395182,60.918608 10.28417,6.59933 25.282238,8.7723 36.979878,5.35774 z m 30.06567,-27.414458 c 3.00305,-7.65652 3.64639,-20.77818 1.40213,-28.59817 C 141.39956,33.909696 108.34871,20.117379 83.173068,34.6752 l -4.362005,2.522329 5.70764,5.767823 c 5.556743,5.61534 5.780782,5.73134 8.474073,4.38775 3.988298,-1.98963 11.636304,-3.23533 16.148004,-2.63019 4.26652,0.57226 4.7504,1.30404 2.23932,3.38653 -2.18202,1.80959 -4.34921,7.11176 -4.32864,10.5903 0.0395,6.68748 7.6171,14.28206 14.25002,14.28206 3.50666,0 8.80136,-2.16916 10.60589,-4.34507 2.1238,-2.56089 2.80598,-2.01764 3.46022,2.75554 0.61204,4.46527 -1.51967,15.17185 -3.39468,17.04993 -0.61228,0.61329 1.11749,3.05869 4.78557,6.76546 l 5.74446,5.805018 1.75449,-2.265478 c 0.96498,-1.24601 2.72524,-4.74046 3.91171,-7.76546 z"
       id="path1" />
  </g>
</svg>
