<?xml version="1.0" encoding="UTF-8" standalone="no"?>
<svg
   width="12"
   height="14"
   version="1.1"
   id="svg1"
   sodipodi:docname="icon-bookmark-empty.svg"
   inkscape:version="1.3.2 (091e20e, 2023-11-25, custom)"
   xmlns:inkscape="http://www.inkscape.org/namespaces/inkscape"
   xmlns:sodipodi="http://sodipodi.sourceforge.net/DTD/sodipodi-0.dtd"
   xmlns="http://www.w3.org/2000/svg"
   xmlns:svg="http://www.w3.org/2000/svg">
  <defs
     id="defs1" />
  <sodipodi:namedview
     id="namedview1"
     pagecolor="#ffffff"
     bordercolor="#000000"
     borderopacity="0.25"
     inkscape:showpageshadow="2"
     inkscape:pageopacity="0.0"
     inkscape:pagecheckerboard="0"
     inkscape:deskcolor="#d1d1d1"
     inkscape:zoom="41.466762"
     inkscape:cx="6.0048094"
     inkscape:cy="7.0056109"
     inkscape:window-width="1920"
     inkscape:window-height="1017"
     inkscape:window-x="-8"
     inkscape:window-y="-8"
     inkscape:window-maximized="1"
     inkscape:current-layer="svg1" />
  <path
     d="m 10.533887,0.68231531 c 0.132889,0 0.259133,0.025273 0.379682,0.074915 A 0.97768287,0.92966885 0 0 1 11.537198,1.6173997 V 12.383506 a 0.97768287,0.92966885 0 0 1 -0.62268,0.860168 c -0.110108,0.04513 -0.237301,0.06679 -0.381581,0.06679 -0.276219,0 -0.51542,-0.08935 -0.7176006,-0.267168 L 5.9995258,9.5006306 2.1837143,13.042397 c -0.206927,0.183226 -0.446127,0.27529 -0.7176,0.27529 a 0.94446064,0.89807817 0 0 1 -0.379683,-0.07492 0.97768287,0.92966885 0 0 1 -0.623629,-0.859266 V 1.6173997 a 0.97768287,0.92966885 0 0 1 0.62268,-0.86016939 0.94446064,0.89807817 0 0 1 0.380632,-0.074915 h 9.0668227 z"
     fill="#FFF"
     id="path1"
     style="fill:none;stroke:#ffffff;stroke-width:0.925606;stroke-opacity:1" />
</svg>
