<?xml version="1.0" encoding="UTF-8" standalone="no"?>
<!-- Created with Inkscape (http://www.inkscape.org/) -->

<svg
   version="1.1"
   id="svg1"
   width="211.116"
   height="108.131"
   viewBox="0 0 211.116 108.131"
   sodipodi:docname="open-eye.svg"
   inkscape:version="1.3.2 (091e20e, 2023-11-25, custom)"
   xmlns:inkscape="http://www.inkscape.org/namespaces/inkscape"
   xmlns:sodipodi="http://sodipodi.sourceforge.net/DTD/sodipodi-0.dtd"
   xmlns="http://www.w3.org/2000/svg"
   xmlns:svg="http://www.w3.org/2000/svg">
  <defs
     id="defs1" />
  <sodipodi:namedview
     id="namedview1"
     pagecolor="#ffffff"
     bordercolor="#000000"
     borderopacity="0.25"
     inkscape:showpageshadow="2"
     inkscape:pageopacity="0.0"
     inkscape:pagecheckerboard="0"
     inkscape:deskcolor="#d1d1d1"
     inkscape:zoom="2.4188944"
     inkscape:cx="112.44807"
     inkscape:cy="120.09619"
     inkscape:window-width="1920"
     inkscape:window-height="1017"
     inkscape:window-x="-8"
     inkscape:window-y="-8"
     inkscape:window-maximized="1"
     inkscape:current-layer="g1" />
  <g
     inkscape:groupmode="layer"
     inkscape:label="Image"
     id="g1">
    <path
       style="fill:#ffffff;stroke-width:0.999997"
       d="M 87.292963,106.98443 C 61.670448,102.84378 30.580607,87.81551 6.7907182,68.0711 L 4.4815723e-4,62.43551 3.2557482,58.32535 C 9.1658982,50.86319 25.978398,34.80717 35.356014,27.669452 52.82695,14.371546 67.171474,6.9387755 84.102861,2.4107305 c 12.02289,-3.21534196 30.932199,-3.21417596 42.977839,0.0027 16.32728,4.36025 31.06168,11.9479645 47.81992,24.6256225 9.8538,7.454427 24.44822,21.272347 32.02141,30.317697 l 4.19352,5.00869 -6.76751,5.67219 c -21.8715,18.33158 -50.7786,32.83935 -75.76734,38.02578 -11.2848,2.34217 -29.921226,2.75791 -41.287737,0.92107 z m 31.696797,-9.33312 c 38.04568,-11.84114 43.62439,-63.35807 9.02784,-83.368074 -13.22779,-7.6507095 -31.6459,-7.6507095 -44.873687,0 C 53.279129,31.55648 52.208572,74.01861 81.169318,92.60268 c 10.668653,6.84605 25.628852,8.84308 37.820442,5.04863 z M 99.803401,83.50443 C 85.984856,81.18882 75.755952,68.65828 75.755952,54.04598 c 0,-16.8579 12.588358,-29.63007 29.306798,-29.73473 3.88973,-0.0243 7.36181,0.24529 7.71572,0.599209 0.35392,0.353919 -0.27705,1.654206 -1.40216,2.889533 -4.64501,5.100078 -5.50846,10.387748 -2.67227,16.364578 4.08429,8.60702 16.8604,11.02932 22.91072,4.34378 0.97675,-1.07929 2.10693,-1.96235 2.5115,-1.96235 1.30469,0 1.72885,7.34305 0.75093,12.99997 -2.79601,16.17384 -18.30572,26.76832 -35.073789,23.95846 z"
       id="path1" />
  </g>
</svg>
